<?xml version="1.0" encoding="utf-8" ?>
<svg baseProfile="full" height="560px" version="1.1" width="650px" xmlns="http://www.w3.org/2000/svg" xmlns:ev="http://www.w3.org/2001/xml-events" xmlns:xlink="http://www.w3.org/1999/xlink"><defs /><text fill="black" font-family="Arial" font-size="20px" font-weight="bold" text-anchor="middle" x="325.0" y="20.0">February 2023</text><rect fill="none" height="20px" stroke="grey" stroke-width="0.5" width="90px" x="10" y="40" /><text fill="black" font-family="Arial" font-size="12px" font-weight="bold" x="15" y="55">Monday</text><rect fill="none" height="90px" stroke="grey" stroke-width="0.5" width="90px" x="10" y="60" /><rect fill="none" height="90px" stroke="grey" stroke-width="0.5" width="90px" x="10" y="150" /><text fill="black" font-family="Arial" font-size="10px" font-weight="normal" x="13" y="163">6</text><rect fill="none" height="90px" stroke="grey" stroke-width="0.5" width="90px" x="10" y="240" /><text fill="black" font-family="Arial" font-size="10px" font-weight="normal" x="13" y="253">13</text><rect fill="none" height="90px" stroke="grey" stroke-width="0.5" width="90px" x="10" y="330" /><text fill="black" font-family="Arial" font-size="10px" font-weight="normal" x="13" y="343">20</text><rect fill="none" height="90px" stroke="grey" stroke-width="0.5" width="90px" x="10" y="420" /><text fill="black" font-family="Arial" font-size="10px" font-weight="normal" x="13" y="433">27</text><rect fill="none" height="20px" stroke="grey" stroke-width="0.5" width="90px" x="100" y="40" /><text fill="black" font-family="Arial" font-size="12px" font-weight="bold" x="105" y="55">Tuesday</text><rect fill="none" height="90px" stroke="grey" stroke-width="0.5" width="90px" x="100" y="60" /><rect fill="none" height="90px" stroke="grey" stroke-width="0.5" width="90px" x="100" y="150" /><text fill="black" font-family="Arial" font-size="10px" font-weight="normal" x="103" y="163">7</text><rect fill="none" height="90px" stroke="grey" stroke-width="0.5" width="90px" x="100" y="240" /><text fill="black" font-family="Arial" font-size="10px" font-weight="normal" x="103" y="253">14</text><rect fill="none" height="90px" stroke="grey" stroke-width="0.5" width="90px" x="100" y="330" /><text fill="black" font-family="Arial" font-size="10px" font-weight="normal" x="103" y="343">21</text><rect fill="none" height="90px" stroke="grey" stroke-width="0.5" width="90px" x="100" y="420" /><text fill="black" font-family="Arial" font-size="10px" font-weight="normal" x="103" y="433">28</text><rect fill="none" height="20px" stroke="grey" stroke-width="0.5" width="90px" x="190" y="40" /><text fill="black" font-family="Arial" font-size="12px" font-weight="bold" x="195" y="55">Wednesday</text><rect fill="none" height="90px" stroke="grey" stroke-width="0.5" width="90px" x="190" y="60" /><text fill="black" font-family="Arial" font-size="10px" font-weight="normal" x="193" y="73">1</text><rect fill="none" height="90px" stroke="grey" stroke-width="0.5" width="90px" x="190" y="150" /><text fill="black" font-family="Arial" font-size="10px" font-weight="normal" x="193" y="163">8</text><rect fill="none" height="90px" stroke="grey" stroke-width="0.5" width="90px" x="190" y="240" /><text fill="black" font-family="Arial" font-size="10px" font-weight="normal" x="193" y="253">15</text><rect fill="none" height="90px" stroke="grey" stroke-width="0.5" width="90px" x="190" y="330" /><text fill="black" font-family="Arial" font-size="10px" font-weight="normal" x="193" y="343">22</text><rect fill="none" height="90px" stroke="grey" stroke-width="0.5" width="90px" x="190" y="420" /><rect fill="none" height="20px" stroke="grey" stroke-width="0.5" width="90px" x="280" y="40" /><text fill="black" font-family="Arial" font-size="12px" font-weight="bold" x="285" y="55">Thursday</text><rect fill="none" height="90px" stroke="grey" stroke-width="0.5" width="90px" x="280" y="60" /><text fill="black" font-family="Arial" font-size="10px" font-weight="normal" x="283" y="73">2</text><rect fill="none" height="90px" stroke="grey" stroke-width="0.5" width="90px" x="280" y="150" /><text fill="black" font-family="Arial" font-size="10px" font-weight="normal" x="283" y="163">9</text><rect fill="none" height="90px" stroke="grey" stroke-width="0.5" width="90px" x="280" y="240" /><text fill="black" font-family="Arial" font-size="10px" font-weight="normal" x="283" y="253">16</text><rect fill="none" height="90px" stroke="grey" stroke-width="0.5" width="90px" x="280" y="330" /><text fill="black" font-family="Arial" font-size="10px" font-weight="normal" x="283" y="343">23</text><rect fill="none" height="90px" stroke="grey" stroke-width="0.5" width="90px" x="280" y="420" /><rect fill="none" height="20px" stroke="grey" stroke-width="0.5" width="90px" x="370" y="40" /><text fill="black" font-family="Arial" font-size="12px" font-weight="bold" x="375" y="55">Friday</text><rect fill="none" height="90px" stroke="grey" stroke-width="0.5" width="90px" x="370" y="60" /><text fill="black" font-family="Arial" font-size="10px" font-weight="normal" x="373" y="73">3</text><rect fill="none" height="90px" stroke="grey" stroke-width="0.5" width="90px" x="370" y="150" /><text fill="black" font-family="Arial" font-size="10px" font-weight="normal" x="373" y="163">10</text><rect fill="none" height="90px" stroke="grey" stroke-width="0.5" width="90px" x="370" y="240" /><text fill="black" font-family="Arial" font-size="10px" font-weight="normal" x="373" y="253">17</text><rect fill="none" height="90px" stroke="grey" stroke-width="0.5" width="90px" x="370" y="330" /><text fill="black" font-family="Arial" font-size="10px" font-weight="normal" x="373" y="343">24</text><rect fill="none" height="90px" stroke="grey" stroke-width="0.5" width="90px" x="370" y="420" /><rect fill="none" height="20px" stroke="grey" stroke-width="0.5" width="90px" x="460" y="40" /><text fill="black" font-family="Arial" font-size="12px" font-weight="bold" x="465" y="55">Saturday</text><rect fill="none" height="90px" stroke="grey" stroke-width="0.5" width="90px" x="460" y="60" /><text fill="black" font-family="Arial" font-size="10px" font-weight="normal" x="463" y="73">4</text><rect fill="lightgrey" height="90px" opacity="0.3" stroke="grey" stroke-width="0.5" width="90px" x="460" y="60" /><rect fill="none" height="90px" stroke="grey" stroke-width="0.5" width="90px" x="460" y="150" /><text fill="black" font-family="Arial" font-size="10px" font-weight="normal" x="463" y="163">11</text><rect fill="lightgrey" height="90px" opacity="0.3" stroke="grey" stroke-width="0.5" width="90px" x="460" y="150" /><rect fill="none" height="90px" stroke="grey" stroke-width="0.5" width="90px" x="460" y="240" /><text fill="black" font-family="Arial" font-size="10px" font-weight="normal" x="463" y="253">18</text><rect fill="lightgrey" height="90px" opacity="0.3" stroke="grey" stroke-width="0.5" width="90px" x="460" y="240" /><rect fill="none" height="90px" stroke="grey" stroke-width="0.5" width="90px" x="460" y="330" /><text fill="black" font-family="Arial" font-size="10px" font-weight="normal" x="463" y="343">25</text><rect fill="lightgrey" height="90px" opacity="0.3" stroke="grey" stroke-width="0.5" width="90px" x="460" y="330" /><rect fill="none" height="90px" stroke="grey" stroke-width="0.5" width="90px" x="460" y="420" /><rect fill="lightgrey" height="90px" opacity="0.3" stroke="grey" stroke-width="0.5" width="90px" x="460" y="420" /><rect fill="none" height="20px" stroke="grey" stroke-width="0.5" width="90px" x="550" y="40" /><text fill="black" font-family="Arial" font-size="12px" font-weight="bold" x="555" y="55">Sunday</text><rect fill="none" height="90px" stroke="grey" stroke-width="0.5" width="90px" x="550" y="60" /><text fill="black" font-family="Arial" font-size="10px" font-weight="normal" x="553" y="73">5</text><rect fill="lightgrey" height="90px" opacity="0.3" stroke="grey" stroke-width="0.5" width="90px" x="550" y="60" /><rect fill="none" height="90px" stroke="grey" stroke-width="0.5" width="90px" x="550" y="150" /><text fill="black" font-family="Arial" font-size="10px" font-weight="normal" x="553" y="163">12</text><rect fill="lightgrey" height="90px" opacity="0.3" stroke="grey" stroke-width="0.5" width="90px" x="550" y="150" /><rect fill="none" height="90px" stroke="grey" stroke-width="0.5" width="90px" x="550" y="240" /><text fill="black" font-family="Arial" font-size="10px" font-weight="normal" x="553" y="253">19</text><rect fill="lightgrey" height="90px" opacity="0.3" stroke="grey" stroke-width="0.5" width="90px" x="550" y="240" /><rect fill="none" height="90px" stroke="grey" stroke-width="0.5" width="90px" x="550" y="330" /><text fill="black" font-family="Arial" font-size="10px" font-weight="normal" x="553" y="343">26</text><rect fill="lightgrey" height="90px" opacity="0.3" stroke="grey" stroke-width="0.5" width="90px" x="550" y="330" /><rect fill="none" height="90px" stroke="grey" stroke-width="0.5" width="90px" x="550" y="420" /><rect fill="lightgrey" height="90px" opacity="0.3" stroke="grey" stroke-width="0.5" width="90px" x="550" y="420" /></svg>